<mxfile host="app.diagrams.net" modified="2020-06-07T15:59:19.644Z" agent="5.0 (Macintosh; Intel Mac OS X 10_15_5) AppleWebKit/537.36 (KHTML, like Gecko) Chrome/83.0.4103.97 Safari/537.36" etag="MCB8aFhlKmK7ZQTRHZkf" version="13.1.14" type="github">
  <diagram id="qdcS3BF98l0xTA7GyJky" name="Page-1">
    <mxGraphModel dx="946" dy="646" grid="1" gridSize="10" guides="1" tooltips="1" connect="1" arrows="1" fold="1" page="1" pageScale="1" pageWidth="850" pageHeight="1100" math="0" shadow="0">
      <root>
        <mxCell id="0" />
        <mxCell id="1" parent="0" />
        <mxCell id="3mxx4iCC5BWDWLMFXnou-20" style="edgeStyle=orthogonalEdgeStyle;rounded=0;orthogonalLoop=1;jettySize=auto;html=1;entryX=0;entryY=0.5;entryDx=0;entryDy=0;" parent="1" source="3mxx4iCC5BWDWLMFXnou-1" target="3mxx4iCC5BWDWLMFXnou-5" edge="1">
          <mxGeometry relative="1" as="geometry" />
        </mxCell>
        <mxCell id="3mxx4iCC5BWDWLMFXnou-1" value="" style="ellipse;whiteSpace=wrap;html=1;aspect=fixed;" parent="1" vertex="1">
          <mxGeometry x="240" y="160" width="40" height="40" as="geometry" />
        </mxCell>
        <mxCell id="3mxx4iCC5BWDWLMFXnou-2" value="" style="ellipse;whiteSpace=wrap;html=1;aspect=fixed;" parent="1" vertex="1">
          <mxGeometry x="240" y="320" width="40" height="40" as="geometry" />
        </mxCell>
        <mxCell id="3mxx4iCC5BWDWLMFXnou-3" value="" style="ellipse;whiteSpace=wrap;html=1;aspect=fixed;" parent="1" vertex="1">
          <mxGeometry x="240" y="240" width="40" height="40" as="geometry" />
        </mxCell>
        <mxCell id="3mxx4iCC5BWDWLMFXnou-5" value="" style="ellipse;whiteSpace=wrap;html=1;aspect=fixed;" parent="1" vertex="1">
          <mxGeometry x="400" y="160" width="40" height="40" as="geometry" />
        </mxCell>
        <mxCell id="3mxx4iCC5BWDWLMFXnou-6" value="" style="ellipse;whiteSpace=wrap;html=1;aspect=fixed;" parent="1" vertex="1">
          <mxGeometry x="400" y="320" width="40" height="40" as="geometry" />
        </mxCell>
        <mxCell id="3mxx4iCC5BWDWLMFXnou-7" value="" style="ellipse;whiteSpace=wrap;html=1;aspect=fixed;" parent="1" vertex="1">
          <mxGeometry x="400" y="240" width="40" height="40" as="geometry" />
        </mxCell>
        <mxCell id="3mxx4iCC5BWDWLMFXnou-8" value="" style="ellipse;whiteSpace=wrap;html=1;aspect=fixed;" parent="1" vertex="1">
          <mxGeometry x="400" y="400" width="40" height="40" as="geometry" />
        </mxCell>
        <mxCell id="3mxx4iCC5BWDWLMFXnou-9" value="" style="ellipse;whiteSpace=wrap;html=1;aspect=fixed;" parent="1" vertex="1">
          <mxGeometry x="400" y="80" width="40" height="40" as="geometry" />
        </mxCell>
        <mxCell id="3mxx4iCC5BWDWLMFXnou-10" value="" style="ellipse;whiteSpace=wrap;html=1;aspect=fixed;" parent="1" vertex="1">
          <mxGeometry x="560" y="200" width="40" height="40" as="geometry" />
        </mxCell>
        <mxCell id="3mxx4iCC5BWDWLMFXnou-12" value="" style="ellipse;whiteSpace=wrap;html=1;aspect=fixed;" parent="1" vertex="1">
          <mxGeometry x="560" y="280" width="40" height="40" as="geometry" />
        </mxCell>
        <mxCell id="3mxx4iCC5BWDWLMFXnou-15" value="" style="endArrow=classic;html=1;entryX=0;entryY=0.5;entryDx=0;entryDy=0;exitX=1;exitY=0.5;exitDx=0;exitDy=0;" parent="1" source="3mxx4iCC5BWDWLMFXnou-1" target="3mxx4iCC5BWDWLMFXnou-9" edge="1">
          <mxGeometry width="50" height="50" relative="1" as="geometry">
            <mxPoint x="280" y="170" as="sourcePoint" />
            <mxPoint x="330" y="120" as="targetPoint" />
          </mxGeometry>
        </mxCell>
        <mxCell id="3mxx4iCC5BWDWLMFXnou-16" value="" style="endArrow=classic;html=1;" parent="1" edge="1">
          <mxGeometry width="50" height="50" relative="1" as="geometry">
            <mxPoint x="280" y="260" as="sourcePoint" />
            <mxPoint x="400" y="110" as="targetPoint" />
          </mxGeometry>
        </mxCell>
        <mxCell id="3mxx4iCC5BWDWLMFXnou-17" value="" style="endArrow=classic;html=1;entryX=0;entryY=1;entryDx=0;entryDy=0;" parent="1" target="3mxx4iCC5BWDWLMFXnou-9" edge="1">
          <mxGeometry width="50" height="50" relative="1" as="geometry">
            <mxPoint x="280" y="340" as="sourcePoint" />
            <mxPoint x="330" y="290" as="targetPoint" />
          </mxGeometry>
        </mxCell>
        <mxCell id="3mxx4iCC5BWDWLMFXnou-22" value="" style="endArrow=classic;html=1;" parent="1" edge="1">
          <mxGeometry width="50" height="50" relative="1" as="geometry">
            <mxPoint x="280" y="260" as="sourcePoint" />
            <mxPoint x="400" y="189" as="targetPoint" />
          </mxGeometry>
        </mxCell>
        <mxCell id="3mxx4iCC5BWDWLMFXnou-23" value="" style="endArrow=classic;html=1;" parent="1" target="3mxx4iCC5BWDWLMFXnou-5" edge="1">
          <mxGeometry width="50" height="50" relative="1" as="geometry">
            <mxPoint x="280" y="341" as="sourcePoint" />
            <mxPoint x="398" y="260" as="targetPoint" />
          </mxGeometry>
        </mxCell>
        <mxCell id="3mxx4iCC5BWDWLMFXnou-25" value="" style="endArrow=classic;html=1;entryX=0;entryY=1;entryDx=0;entryDy=0;" parent="1" target="3mxx4iCC5BWDWLMFXnou-7" edge="1">
          <mxGeometry width="50" height="50" relative="1" as="geometry">
            <mxPoint x="280" y="340" as="sourcePoint" />
            <mxPoint x="406.876425701515" y="200.00211044325752" as="targetPoint" />
          </mxGeometry>
        </mxCell>
        <mxCell id="3mxx4iCC5BWDWLMFXnou-27" value="" style="endArrow=classic;html=1;" parent="1" edge="1">
          <mxGeometry width="50" height="50" relative="1" as="geometry">
            <mxPoint x="280" y="260" as="sourcePoint" />
            <mxPoint x="400" y="269" as="targetPoint" />
          </mxGeometry>
        </mxCell>
        <mxCell id="3mxx4iCC5BWDWLMFXnou-28" value="" style="endArrow=classic;html=1;entryX=0;entryY=0.5;entryDx=0;entryDy=0;" parent="1" target="3mxx4iCC5BWDWLMFXnou-6" edge="1">
          <mxGeometry width="50" height="50" relative="1" as="geometry">
            <mxPoint x="280" y="340" as="sourcePoint" />
            <mxPoint x="415.85786437626894" y="284.14213562373106" as="targetPoint" />
          </mxGeometry>
        </mxCell>
        <mxCell id="3mxx4iCC5BWDWLMFXnou-29" value="" style="endArrow=classic;html=1;entryX=0;entryY=0.5;entryDx=0;entryDy=0;exitX=1;exitY=0.5;exitDx=0;exitDy=0;" parent="1" source="3mxx4iCC5BWDWLMFXnou-1" target="3mxx4iCC5BWDWLMFXnou-7" edge="1">
          <mxGeometry width="50" height="50" relative="1" as="geometry">
            <mxPoint x="300" y="360" as="sourcePoint" />
            <mxPoint x="425.85786437626894" y="294.14213562373106" as="targetPoint" />
          </mxGeometry>
        </mxCell>
        <mxCell id="3mxx4iCC5BWDWLMFXnou-30" value="" style="endArrow=classic;html=1;entryX=0;entryY=1;entryDx=0;entryDy=0;" parent="1" target="3mxx4iCC5BWDWLMFXnou-8" edge="1">
          <mxGeometry width="50" height="50" relative="1" as="geometry">
            <mxPoint x="280" y="340" as="sourcePoint" />
            <mxPoint x="435.85786437626894" y="304.14213562373106" as="targetPoint" />
          </mxGeometry>
        </mxCell>
        <mxCell id="3mxx4iCC5BWDWLMFXnou-31" value="" style="endArrow=classic;html=1;entryX=0;entryY=0.275;entryDx=0;entryDy=0;entryPerimeter=0;" parent="1" target="3mxx4iCC5BWDWLMFXnou-6" edge="1">
          <mxGeometry width="50" height="50" relative="1" as="geometry">
            <mxPoint x="280" y="260" as="sourcePoint" />
            <mxPoint x="445.85786437626894" y="314.14213562373106" as="targetPoint" />
          </mxGeometry>
        </mxCell>
        <mxCell id="3mxx4iCC5BWDWLMFXnou-32" value="" style="endArrow=classic;html=1;entryX=0;entryY=0;entryDx=0;entryDy=0;exitX=1;exitY=0.5;exitDx=0;exitDy=0;" parent="1" source="3mxx4iCC5BWDWLMFXnou-1" target="3mxx4iCC5BWDWLMFXnou-6" edge="1">
          <mxGeometry width="50" height="50" relative="1" as="geometry">
            <mxPoint x="330" y="390" as="sourcePoint" />
            <mxPoint x="455.85786437626894" y="324.14213562373106" as="targetPoint" />
          </mxGeometry>
        </mxCell>
        <mxCell id="3mxx4iCC5BWDWLMFXnou-33" value="" style="endArrow=classic;html=1;entryX=0;entryY=0.5;entryDx=0;entryDy=0;" parent="1" target="3mxx4iCC5BWDWLMFXnou-8" edge="1">
          <mxGeometry width="50" height="50" relative="1" as="geometry">
            <mxPoint x="280" y="260" as="sourcePoint" />
            <mxPoint x="465.85786437626894" y="334.14213562373106" as="targetPoint" />
          </mxGeometry>
        </mxCell>
        <mxCell id="3mxx4iCC5BWDWLMFXnou-34" value="" style="endArrow=classic;html=1;entryX=0;entryY=0;entryDx=0;entryDy=0;" parent="1" target="3mxx4iCC5BWDWLMFXnou-8" edge="1">
          <mxGeometry width="50" height="50" relative="1" as="geometry">
            <mxPoint x="280" y="180" as="sourcePoint" />
            <mxPoint x="475.85786437626894" y="344.14213562373106" as="targetPoint" />
          </mxGeometry>
        </mxCell>
        <mxCell id="3mxx4iCC5BWDWLMFXnou-35" value="" style="endArrow=classic;html=1;exitX=1;exitY=0.5;exitDx=0;exitDy=0;entryX=0.2;entryY=-0.025;entryDx=0;entryDy=0;entryPerimeter=0;" parent="1" source="3mxx4iCC5BWDWLMFXnou-9" target="3mxx4iCC5BWDWLMFXnou-10" edge="1">
          <mxGeometry width="50" height="50" relative="1" as="geometry">
            <mxPoint x="450" y="110" as="sourcePoint" />
            <mxPoint x="559" y="210" as="targetPoint" />
          </mxGeometry>
        </mxCell>
        <mxCell id="3mxx4iCC5BWDWLMFXnou-36" value="" style="endArrow=classic;html=1;entryX=0;entryY=0.3;entryDx=0;entryDy=0;exitX=1;exitY=0.5;exitDx=0;exitDy=0;entryPerimeter=0;" parent="1" source="3mxx4iCC5BWDWLMFXnou-5" target="3mxx4iCC5BWDWLMFXnou-12" edge="1">
          <mxGeometry width="50" height="50" relative="1" as="geometry">
            <mxPoint x="440" y="190" as="sourcePoint" />
            <mxPoint x="565.8578643762689" y="295.85786437626894" as="targetPoint" />
          </mxGeometry>
        </mxCell>
        <mxCell id="3mxx4iCC5BWDWLMFXnou-38" value="" style="endArrow=classic;html=1;" parent="1" edge="1">
          <mxGeometry width="50" height="50" relative="1" as="geometry">
            <mxPoint x="440" y="340" as="sourcePoint" />
            <mxPoint x="560" y="230" as="targetPoint" />
          </mxGeometry>
        </mxCell>
        <mxCell id="3mxx4iCC5BWDWLMFXnou-39" value="" style="endArrow=classic;html=1;entryX=0;entryY=0;entryDx=0;entryDy=0;" parent="1" target="3mxx4iCC5BWDWLMFXnou-10" edge="1">
          <mxGeometry width="50" height="50" relative="1" as="geometry">
            <mxPoint x="440" y="180" as="sourcePoint" />
            <mxPoint x="560" y="220" as="targetPoint" />
          </mxGeometry>
        </mxCell>
        <mxCell id="3mxx4iCC5BWDWLMFXnou-40" value="" style="endArrow=classic;html=1;" parent="1" target="3mxx4iCC5BWDWLMFXnou-12" edge="1">
          <mxGeometry width="50" height="50" relative="1" as="geometry">
            <mxPoint x="440" y="420" as="sourcePoint" />
            <mxPoint x="570" y="350" as="targetPoint" />
          </mxGeometry>
        </mxCell>
        <mxCell id="3mxx4iCC5BWDWLMFXnou-41" value="" style="endArrow=classic;html=1;entryX=-0.025;entryY=0.7;entryDx=0;entryDy=0;exitX=1;exitY=0.5;exitDx=0;exitDy=0;entryPerimeter=0;" parent="1" source="3mxx4iCC5BWDWLMFXnou-6" target="3mxx4iCC5BWDWLMFXnou-12" edge="1">
          <mxGeometry width="50" height="50" relative="1" as="geometry">
            <mxPoint x="440" y="334.14" as="sourcePoint" />
            <mxPoint x="565.8578643762689" y="439.9978643762689" as="targetPoint" />
          </mxGeometry>
        </mxCell>
        <mxCell id="3mxx4iCC5BWDWLMFXnou-42" value="" style="endArrow=classic;html=1;entryX=0;entryY=0;entryDx=0;entryDy=0;exitX=1;exitY=0.5;exitDx=0;exitDy=0;" parent="1" source="3mxx4iCC5BWDWLMFXnou-9" target="3mxx4iCC5BWDWLMFXnou-12" edge="1">
          <mxGeometry width="50" height="50" relative="1" as="geometry">
            <mxPoint x="450" y="134.14" as="sourcePoint" />
            <mxPoint x="575.8578643762689" y="239.99786437626892" as="targetPoint" />
          </mxGeometry>
        </mxCell>
        <mxCell id="3mxx4iCC5BWDWLMFXnou-43" value="" style="endArrow=classic;html=1;entryX=0;entryY=0.5;entryDx=0;entryDy=0;exitX=1;exitY=0.5;exitDx=0;exitDy=0;" parent="1" source="3mxx4iCC5BWDWLMFXnou-7" target="3mxx4iCC5BWDWLMFXnou-12" edge="1">
          <mxGeometry width="50" height="50" relative="1" as="geometry">
            <mxPoint x="440" y="254.14" as="sourcePoint" />
            <mxPoint x="565.8578643762689" y="359.9978643762689" as="targetPoint" />
          </mxGeometry>
        </mxCell>
        <mxCell id="3mxx4iCC5BWDWLMFXnou-44" value="" style="endArrow=classic;html=1;entryX=0;entryY=1;entryDx=0;entryDy=0;" parent="1" target="3mxx4iCC5BWDWLMFXnou-10" edge="1">
          <mxGeometry width="50" height="50" relative="1" as="geometry">
            <mxPoint x="440" y="420" as="sourcePoint" />
            <mxPoint x="574.814867952673" y="323.01582746913755" as="targetPoint" />
          </mxGeometry>
        </mxCell>
        <mxCell id="3mxx4iCC5BWDWLMFXnou-45" value="" style="endArrow=classic;html=1;" parent="1" edge="1">
          <mxGeometry width="50" height="50" relative="1" as="geometry">
            <mxPoint x="440" y="260" as="sourcePoint" />
            <mxPoint x="560" y="220" as="targetPoint" />
          </mxGeometry>
        </mxCell>
        <mxCell id="3mxx4iCC5BWDWLMFXnou-48" value="" style="endArrow=classic;html=1;entryX=0;entryY=0.5;entryDx=0;entryDy=0;" parent="1" target="3mxx4iCC5BWDWLMFXnou-1" edge="1">
          <mxGeometry width="50" height="50" relative="1" as="geometry">
            <mxPoint x="140" y="180" as="sourcePoint" />
            <mxPoint x="170" y="180" as="targetPoint" />
          </mxGeometry>
        </mxCell>
        <mxCell id="3mxx4iCC5BWDWLMFXnou-49" value="" style="endArrow=classic;html=1;entryX=0;entryY=0.5;entryDx=0;entryDy=0;" parent="1" target="3mxx4iCC5BWDWLMFXnou-3" edge="1">
          <mxGeometry width="50" height="50" relative="1" as="geometry">
            <mxPoint x="140" y="260" as="sourcePoint" />
            <mxPoint x="170" y="220" as="targetPoint" />
            <Array as="points" />
          </mxGeometry>
        </mxCell>
        <mxCell id="3mxx4iCC5BWDWLMFXnou-50" value="" style="endArrow=classic;html=1;" parent="1" edge="1">
          <mxGeometry width="50" height="50" relative="1" as="geometry">
            <mxPoint x="140" y="339.5" as="sourcePoint" />
            <mxPoint x="236" y="339.5" as="targetPoint" />
          </mxGeometry>
        </mxCell>
        <mxCell id="3mxx4iCC5BWDWLMFXnou-51" value="" style="endArrow=classic;html=1;exitX=1;exitY=0.5;exitDx=0;exitDy=0;" parent="1" source="3mxx4iCC5BWDWLMFXnou-10" edge="1">
          <mxGeometry width="50" height="50" relative="1" as="geometry">
            <mxPoint x="610" y="220" as="sourcePoint" />
            <mxPoint x="680" y="220" as="targetPoint" />
          </mxGeometry>
        </mxCell>
        <mxCell id="3mxx4iCC5BWDWLMFXnou-52" value="" style="endArrow=classic;html=1;exitX=1;exitY=0.5;exitDx=0;exitDy=0;" parent="1" edge="1">
          <mxGeometry width="50" height="50" relative="1" as="geometry">
            <mxPoint x="600" y="299.5" as="sourcePoint" />
            <mxPoint x="680" y="299.5" as="targetPoint" />
          </mxGeometry>
        </mxCell>
        <mxCell id="3mxx4iCC5BWDWLMFXnou-53" value="Input&lt;br&gt;Layer" style="text;html=1;strokeColor=none;fillColor=none;align=center;verticalAlign=middle;whiteSpace=wrap;rounded=0;" parent="1" vertex="1">
          <mxGeometry x="240" y="110" width="40" height="20" as="geometry" />
        </mxCell>
        <mxCell id="3mxx4iCC5BWDWLMFXnou-54" value="Hidden Layer" style="text;html=1;strokeColor=none;fillColor=none;align=center;verticalAlign=middle;whiteSpace=wrap;rounded=0;" parent="1" vertex="1">
          <mxGeometry x="400" y="40" width="40" height="20" as="geometry" />
        </mxCell>
        <mxCell id="3mxx4iCC5BWDWLMFXnou-55" value="Output Layer" style="text;html=1;strokeColor=none;fillColor=none;align=center;verticalAlign=middle;whiteSpace=wrap;rounded=0;" parent="1" vertex="1">
          <mxGeometry x="560" y="130" width="40" height="20" as="geometry" />
        </mxCell>
        <mxCell id="3mxx4iCC5BWDWLMFXnou-58" value="Neuron" style="text;html=1;strokeColor=none;fillColor=none;align=center;verticalAlign=middle;whiteSpace=wrap;rounded=0;" parent="1" vertex="1">
          <mxGeometry x="514.33" y="480" width="40" height="20" as="geometry" />
        </mxCell>
        <mxCell id="PN2GyKS0bqgNVx3NtS7D-1" value="" style="html=1;shadow=0;dashed=0;align=center;verticalAlign=middle;shape=mxgraph.arrows2.arrow;dy=0.95;dx=13.58;notch=0;rotation=-150;" vertex="1" parent="1">
          <mxGeometry x="425" y="455" width="89.33" height="10" as="geometry" />
        </mxCell>
      </root>
    </mxGraphModel>
  </diagram>
</mxfile>
